<svg width="32" height="8" viewBox="0 0 32 8" fill="none" xmlns="http://www.w3.org/2000/svg">
<path d="M24 4C24 2.93913 24.4214 1.92172 25.1716 1.17157C25.9217 0.421428 26.9391 0 28 0C29.0609 0 30.0783 0.421428 30.8284 1.17157C31.5786 1.92172 32 2.93913 32 4C32 5.06087 31.5786 6.07828 30.8284 6.82843C30.0783 7.57857 29.0609 8 28 8C26.9391 8 25.9217 7.57857 25.1716 6.82843C24.4214 6.07828 24 5.06087 24 4ZM12 4C12 2.93913 12.4214 1.92172 13.1716 1.17157C13.9217 0.421428 14.9391 0 16 0C17.0609 0 18.0783 0.421428 18.8284 1.17157C19.5786 1.92172 20 2.93913 20 4C20 5.06087 19.5786 6.07828 18.8284 6.82843C18.0783 7.57857 17.0609 8 16 8C14.9391 8 13.9217 7.57857 13.1716 6.82843C12.4214 6.07828 12 5.06087 12 4ZM0 4C0 2.93913 0.421427 1.92172 1.17157 1.17157C1.92172 0.421428 2.93913 0 4 0C5.06087 0 6.07828 0.421428 6.82843 1.17157C7.57857 1.92172 8 2.93913 8 4C8 5.06087 7.57857 6.07828 6.82843 6.82843C6.07828 7.57857 5.06087 8 4 8C2.93913 8 1.92172 7.57857 1.17157 6.82843C0.421427 6.07828 0 5.06087 0 4Z" fill="#7D7D7D"/>
</svg>
