<svg width="15" height="14" viewBox="0 0 15 14" fill="none" xmlns="http://www.w3.org/2000/svg">
<path d="M14.2983 8.70428C13.6591 7.99341 13.3687 7.37738 13.3687 6.3308V5.97495C13.3687 4.61112 13.0391 3.73239 12.3225 2.85367C11.2181 1.489 9.35883 0.666504 7.5387 0.666504H7.4613C5.67943 0.666504 3.87843 1.45123 2.75487 2.76051C1.99916 3.65686 1.63131 4.57335 1.63131 5.97495V6.3308C1.63131 7.37738 1.35999 7.99341 0.701677 8.70428C0.217294 9.22799 0.0625 9.9011 0.0625 10.6296C0.0625 11.3589 0.313823 12.0497 0.818207 12.6111C1.47652 13.2842 2.40615 13.7139 3.35578 13.7886C4.73067 13.938 6.10555 13.9943 7.50043 13.9943C8.89445 13.9943 10.2693 13.9003 11.6451 13.7886C12.5939 13.7139 13.5235 13.2842 14.1818 12.6111C14.6853 12.0497 14.9375 11.3589 14.9375 10.6296C14.9375 9.9011 14.7827 9.22799 14.2983 8.70428Z" fill="#8A92A6"/>
</svg>
